<?xml version="1.0" encoding="UTF-8" standalone="no"?>
<!DOCTYPE svg PUBLIC "-//W3C//DTD SVG 1.1//EN"
 "http://www.w3.org/Graphics/SVG/1.1/DTD/svg11.dtd">
<!-- Generated by graphviz version 2.26.3 (20100126.1600)
 -->
<!-- Title: tree Pages: 1 -->
<svg width="11179pt" height="268pt"
 viewBox="0.00 0.00 11179.00 268.00" xmlns="http://www.w3.org/2000/svg" xmlns:xlink="http://www.w3.org/1999/xlink">
<g id="graph1" class="graph" transform="scale(1 1) rotate(0) translate(4 264)">
<title>tree</title>
<polygon fill="white" stroke="white" points="-4,5 -4,-264 11176,-264 11176,5 -4,5"/>
<!-- Object3D -->
<g id="node1" class="node"><title>Object3D</title>
<ellipse fill="none" stroke="black" cx="2040" cy="-241" rx="56.7776" ry="18.3848"/>
<text text-anchor="middle" x="2040" y="-237.4" font-family="Times Roman,serif" font-size="14.00">Object3D</text>
</g>
<!-- Camera -->
<g id="node3" class="node"><title>Camera</title>
<ellipse fill="none" stroke="black" cx="461" cy="-167" rx="48.9975" ry="18.3848"/>
<text text-anchor="middle" x="461" y="-163.4" font-family="Times Roman,serif" font-size="14.00">Camera</text>
</g>
<!-- Object3D&#45;&gt;Camera -->
<g id="edge2" class="edge"><title>Object3D&#45;&gt;Camera</title>
<path fill="none" stroke="black" d="M1983.34,-238.344C1738.16,-226.854 769.776,-181.471 520.019,-169.766"/>
<polygon fill="black" stroke="black" points="519.859,-166.255 509.706,-169.283 519.531,-173.247 519.859,-166.255"/>
</g>
<!-- Light -->
<g id="node9" class="node"><title>Light</title>
<ellipse fill="none" stroke="black" cx="1215" cy="-167" rx="36.7696" ry="18.3848"/>
<text text-anchor="middle" x="1215" y="-163.4" font-family="Times Roman,serif" font-size="14.00">Light</text>
</g>
<!-- Object3D&#45;&gt;Light -->
<g id="edge8" class="edge"><title>Object3D&#45;&gt;Light</title>
<path fill="none" stroke="black" d="M1983.2,-238.491C1861.82,-232.723 1568.32,-216.606 1324,-186 1302.74,-183.336 1279.31,-179.386 1259.64,-175.777"/>
<polygon fill="black" stroke="black" points="1260.2,-172.321 1249.73,-173.929 1258.91,-179.202 1260.2,-172.321"/>
</g>
<!-- Particle -->
<g id="node50" class="node"><title>Particle</title>
<ellipse fill="none" stroke="black" cx="1381" cy="-167" rx="48.0833" ry="18.3848"/>
<text text-anchor="middle" x="1381" y="-163.4" font-family="Times Roman,serif" font-size="14.00">Particle</text>
</g>
<!-- Object3D&#45;&gt;Particle -->
<g id="edge46" class="edge"><title>Object3D&#45;&gt;Particle</title>
<path fill="none" stroke="black" d="M1983.84,-237.53C1855.03,-229.302 1541.49,-207.672 1438,-186 1433.87,-185.134 1429.61,-184.067 1425.38,-182.883"/>
<polygon fill="black" stroke="black" points="1426.2,-179.475 1415.62,-179.951 1424.19,-186.179 1426.2,-179.475"/>
</g>
<!-- ParticleSystem -->
<g id="node52" class="node"><title>ParticleSystem</title>
<ellipse fill="none" stroke="black" cx="1531" cy="-167" rx="84.1457" ry="18.3848"/>
<text text-anchor="middle" x="1531" y="-163.4" font-family="Times Roman,serif" font-size="14.00">ParticleSystem</text>
</g>
<!-- Object3D&#45;&gt;ParticleSystem -->
<g id="edge48" class="edge"><title>Object3D&#45;&gt;ParticleSystem</title>
<path fill="none" stroke="black" d="M1985.97,-235.082C1906.45,-226.094 1753.32,-207.731 1624,-186 1616.66,-184.766 1609,-183.375 1601.39,-181.922"/>
<polygon fill="black" stroke="black" points="1601.9,-178.456 1591.42,-179.983 1600.57,-185.328 1601.9,-178.456"/>
</g>
<!-- Line -->
<g id="node54" class="node"><title>Line</title>
<ellipse fill="none" stroke="black" cx="1665" cy="-167" rx="32.0265" ry="18.3848"/>
<text text-anchor="middle" x="1665" y="-163.4" font-family="Times Roman,serif" font-size="14.00">Line</text>
</g>
<!-- Object3D&#45;&gt;Line -->
<g id="edge50" class="edge"><title>Object3D&#45;&gt;Line</title>
<path fill="none" stroke="black" d="M1984.57,-236.499C1917.44,-229.999 1801.48,-215.388 1706,-186 1703.42,-185.205 1700.79,-184.281 1698.17,-183.275"/>
<polygon fill="black" stroke="black" points="1699.43,-180.007 1688.85,-179.369 1696.72,-186.463 1699.43,-180.007"/>
</g>
<!-- Mesh -->
<g id="node56" class="node"><title>Mesh</title>
<ellipse fill="none" stroke="black" cx="1752" cy="-167" rx="36.977" ry="18.3848"/>
<text text-anchor="middle" x="1752" y="-163.4" font-family="Times Roman,serif" font-size="14.00">Mesh</text>
</g>
<!-- Object3D&#45;&gt;Mesh -->
<g id="edge52" class="edge"><title>Object3D&#45;&gt;Mesh</title>
<path fill="none" stroke="black" d="M1989.75,-232.14C1940.34,-222.832 1863.09,-206.676 1798,-186 1795.22,-185.117 1792.37,-184.137 1789.53,-183.1"/>
<polygon fill="black" stroke="black" points="1790.53,-179.736 1779.94,-179.418 1788.02,-186.271 1790.53,-179.736"/>
</g>
<!-- Bone -->
<g id="node58" class="node"><title>Bone</title>
<ellipse fill="none" stroke="black" cx="1844" cy="-167" rx="36.7696" ry="18.3848"/>
<text text-anchor="middle" x="1844" y="-163.4" font-family="Times Roman,serif" font-size="14.00">Bone</text>
</g>
<!-- Object3D&#45;&gt;Bone -->
<g id="edge54" class="edge"><title>Object3D&#45;&gt;Bone</title>
<path fill="none" stroke="black" d="M2001.3,-227.295C1970.92,-216.416 1927.6,-200.653 1890,-186 1887.45,-185.005 1884.82,-183.965 1882.18,-182.906"/>
<polygon fill="black" stroke="black" points="1883.22,-179.552 1872.64,-179.037 1880.59,-186.039 1883.22,-179.552"/>
</g>
<!-- Ribbon -->
<g id="node64" class="node"><title>Ribbon</title>
<ellipse fill="none" stroke="black" cx="1944" cy="-167" rx="44.7575" ry="18.3848"/>
<text text-anchor="middle" x="1944" y="-163.4" font-family="Times Roman,serif" font-size="14.00">Ribbon</text>
</g>
<!-- Object3D&#45;&gt;Ribbon -->
<g id="edge60" class="edge"><title>Object3D&#45;&gt;Ribbon</title>
<path fill="none" stroke="black" d="M2017.73,-223.837C2004.58,-213.701 1987.78,-200.744 1973.53,-189.762"/>
<polygon fill="black" stroke="black" points="1975.54,-186.894 1965.48,-183.561 1971.27,-192.438 1975.54,-186.894"/>
</g>
<!-- LOD -->
<g id="node66" class="node"><title>LOD</title>
<ellipse fill="none" stroke="black" cx="2040" cy="-167" rx="33.234" ry="18.3848"/>
<text text-anchor="middle" x="2040" y="-163.4" font-family="Times Roman,serif" font-size="14.00">LOD</text>
</g>
<!-- Object3D&#45;&gt;LOD -->
<g id="edge62" class="edge"><title>Object3D&#45;&gt;LOD</title>
<path fill="none" stroke="black" d="M2040,-222.327C2040,-214.264 2040,-204.648 2040,-195.711"/>
<polygon fill="black" stroke="black" points="2043.5,-195.667 2040,-185.667 2036.5,-195.667 2043.5,-195.667"/>
</g>
<!-- Sprite -->
<g id="node68" class="node"><title>Sprite</title>
<ellipse fill="none" stroke="black" cx="2132" cy="-167" rx="41.0122" ry="18.3848"/>
<text text-anchor="middle" x="2132" y="-163.4" font-family="Times Roman,serif" font-size="14.00">Sprite</text>
</g>
<!-- Object3D&#45;&gt;Sprite -->
<g id="edge64" class="edge"><title>Object3D&#45;&gt;Sprite</title>
<path fill="none" stroke="black" d="M2061.34,-223.837C2073.91,-213.725 2089.97,-200.806 2103.6,-189.841"/>
<polygon fill="black" stroke="black" points="2106.13,-192.303 2111.72,-183.308 2101.74,-186.849 2106.13,-192.303"/>
</g>
<!-- Scene -->
<g id="node70" class="node"><title>Scene</title>
<ellipse fill="none" stroke="black" cx="2232" cy="-167" rx="41.0122" ry="18.3848"/>
<text text-anchor="middle" x="2232" y="-163.4" font-family="Times Roman,serif" font-size="14.00">Scene</text>
</g>
<!-- Object3D&#45;&gt;Scene -->
<g id="edge66" class="edge"><title>Object3D&#45;&gt;Scene</title>
<path fill="none" stroke="black" d="M2077.02,-226.732C2109.75,-214.118 2157.41,-195.748 2191.22,-182.716"/>
<polygon fill="black" stroke="black" points="2192.73,-185.885 2200.8,-179.023 2190.22,-179.354 2192.73,-185.885"/>
</g>
<!-- Gyroscope -->
<g id="node90" class="node"><title>Gyroscope</title>
<ellipse fill="none" stroke="black" cx="2354" cy="-167" rx="62.9325" ry="18.3848"/>
<text text-anchor="middle" x="2354" y="-163.4" font-family="Times Roman,serif" font-size="14.00">Gyroscope</text>
</g>
<!-- Object3D&#45;&gt;Gyroscope -->
<g id="edge84" class="edge"><title>Object3D&#45;&gt;Gyroscope</title>
<path fill="none" stroke="black" d="M2087.87,-230.632C2136.77,-219.92 2214.84,-202.487 2282,-186 2286.97,-184.779 2292.13,-183.481 2297.3,-182.159"/>
<polygon fill="black" stroke="black" points="2298.39,-185.492 2307.2,-179.602 2296.64,-178.714 2298.39,-185.492"/>
</g>
<!-- CubeCamera -->
<g id="node96" class="node"><title>CubeCamera</title>
<ellipse fill="none" stroke="black" cx="2509" cy="-167" rx="74.2462" ry="18.3848"/>
<text text-anchor="middle" x="2509" y="-163.4" font-family="Times Roman,serif" font-size="14.00">CubeCamera</text>
</g>
<!-- Object3D&#45;&gt;CubeCamera -->
<g id="edge90" class="edge"><title>Object3D&#45;&gt;CubeCamera</title>
<path fill="none" stroke="black" d="M2093.93,-234.758C2168.77,-225.77 2308.19,-207.837 2426,-186 2432.3,-184.833 2438.84,-183.517 2445.36,-182.136"/>
<polygon fill="black" stroke="black" points="2446.53,-185.464 2455.56,-179.924 2445.04,-178.623 2446.53,-185.464"/>
</g>
<!-- AxisHelper -->
<g id="node137" class="node"><title>AxisHelper</title>
<ellipse fill="none" stroke="black" cx="2664" cy="-167" rx="63.1385" ry="18.3848"/>
<text text-anchor="middle" x="2664" y="-163.4" font-family="Times Roman,serif" font-size="14.00">AxisHelper</text>
</g>
<!-- Object3D&#45;&gt;AxisHelper -->
<g id="edge130" class="edge"><title>Object3D&#45;&gt;AxisHelper</title>
<path fill="none" stroke="black" d="M2096.43,-238.338C2196.8,-232.948 2412.64,-218.39 2592,-186 2597.49,-185.009 2603.17,-183.813 2608.82,-182.509"/>
<polygon fill="black" stroke="black" points="2610.03,-185.818 2618.92,-180.066 2608.38,-179.015 2610.03,-185.818"/>
</g>
<!-- ArrowHelper -->
<g id="node139" class="node"><title>ArrowHelper</title>
<ellipse fill="none" stroke="black" cx="2818" cy="-167" rx="73.0388" ry="18.3848"/>
<text text-anchor="middle" x="2818" y="-163.4" font-family="Times Roman,serif" font-size="14.00">ArrowHelper</text>
</g>
<!-- Object3D&#45;&gt;ArrowHelper -->
<g id="edge132" class="edge"><title>Object3D&#45;&gt;ArrowHelper</title>
<path fill="none" stroke="black" d="M2097.17,-239.361C2216.52,-235.308 2500.61,-222.364 2736,-186 2742.6,-184.981 2749.45,-183.72 2756.26,-182.337"/>
<polygon fill="black" stroke="black" points="2757.12,-185.734 2766.17,-180.236 2755.66,-178.886 2757.12,-185.734"/>
</g>
<!-- ImmediateRenderObject -->
<g id="node143" class="node"><title>ImmediateRenderObject</title>
<ellipse fill="none" stroke="black" cx="3037" cy="-167" rx="128.193" ry="18.3848"/>
<text text-anchor="middle" x="3037" y="-163.4" font-family="Times Roman,serif" font-size="14.00">ImmediateRenderObject</text>
</g>
<!-- Object3D&#45;&gt;ImmediateRenderObject -->
<g id="edge136" class="edge"><title>Object3D&#45;&gt;ImmediateRenderObject</title>
<path fill="none" stroke="black" d="M2096.72,-238.825C2234.56,-233.223 2598.02,-216.554 2900,-186 2912.25,-184.76 2925.1,-183.255 2937.8,-181.639"/>
<polygon fill="black" stroke="black" points="2938.48,-185.081 2947.94,-180.323 2937.58,-178.139 2938.48,-185.081"/>
</g>
<!-- LensFlare -->
<g id="node145" class="node"><title>LensFlare</title>
<ellipse fill="none" stroke="black" cx="3241" cy="-167" rx="58.1882" ry="18.3848"/>
<text text-anchor="middle" x="3241" y="-163.4" font-family="Times Roman,serif" font-size="14.00">LensFlare</text>
</g>
<!-- Object3D&#45;&gt;LensFlare -->
<g id="edge138" class="edge"><title>Object3D&#45;&gt;LensFlare</title>
<path fill="none" stroke="black" d="M2096.93,-239.953C2296.43,-236.018 2963.2,-220.538 3174,-186 3179.16,-185.154 3184.49,-184.052 3189.79,-182.803"/>
<polygon fill="black" stroke="black" points="3191.04,-186.097 3199.87,-180.252 3189.32,-179.311 3191.04,-186.097"/>
</g>
<!-- OrthographicCamera -->
<g id="node5" class="node"><title>OrthographicCamera</title>
<ellipse fill="none" stroke="black" cx="114" cy="-93" rx="113.844" ry="18.3848"/>
<text text-anchor="middle" x="114" y="-89.4" font-family="Times Roman,serif" font-size="14.00">OrthographicCamera</text>
</g>
<!-- Camera&#45;&gt;OrthographicCamera -->
<g id="edge4" class="edge"><title>Camera&#45;&gt;OrthographicCamera</title>
<path fill="none" stroke="black" d="M418.103,-157.852C362.106,-145.91 263.029,-124.781 193.21,-109.892"/>
<polygon fill="black" stroke="black" points="193.64,-106.405 183.13,-107.742 192.18,-113.251 193.64,-106.405"/>
</g>
<!-- PerspectiveCamera -->
<g id="node7" class="node"><title>PerspectiveCamera</title>
<ellipse fill="none" stroke="black" cx="351" cy="-93" rx="104.86" ry="18.3848"/>
<text text-anchor="middle" x="351" y="-89.4" font-family="Times Roman,serif" font-size="14.00">PerspectiveCamera</text>
</g>
<!-- Camera&#45;&gt;PerspectiveCamera -->
<g id="edge6" class="edge"><title>Camera&#45;&gt;PerspectiveCamera</title>
<path fill="none" stroke="black" d="M436.86,-150.76C421.996,-140.761 402.686,-127.77 386.144,-116.642"/>
<polygon fill="black" stroke="black" points="388.035,-113.696 377.784,-111.018 384.127,-119.504 388.035,-113.696"/>
</g>
<!-- CombinedCamera -->
<g id="node98" class="node"><title>CombinedCamera</title>
<ellipse fill="none" stroke="black" cx="571" cy="-93" rx="97.0803" ry="18.3848"/>
<text text-anchor="middle" x="571" y="-89.4" font-family="Times Roman,serif" font-size="14.00">CombinedCamera</text>
</g>
<!-- Camera&#45;&gt;CombinedCamera -->
<g id="edge92" class="edge"><title>Camera&#45;&gt;CombinedCamera</title>
<path fill="none" stroke="black" d="M485.14,-150.76C500.004,-140.761 519.314,-127.77 535.856,-116.642"/>
<polygon fill="black" stroke="black" points="537.873,-119.504 544.216,-111.018 533.965,-113.696 537.873,-119.504"/>
</g>
<!-- AmbientLight -->
<g id="node11" class="node"><title>AmbientLight</title>
<ellipse fill="none" stroke="black" cx="764" cy="-93" rx="77.7817" ry="18.3848"/>
<text text-anchor="middle" x="764" y="-89.4" font-family="Times Roman,serif" font-size="14.00">AmbientLight</text>
</g>
<!-- Light&#45;&gt;AmbientLight -->
<g id="edge10" class="edge"><title>Light&#45;&gt;AmbientLight</title>
<path fill="none" stroke="black" d="M1178.96,-162.346C1113.46,-153.711 970.573,-134.066 851,-112 844.36,-110.775 837.454,-109.415 830.566,-108.001"/>
<polygon fill="black" stroke="black" points="831.023,-104.521 820.519,-105.902 829.592,-111.373 831.023,-104.521"/>
</g>
<!-- DirectionalLight -->
<g id="node13" class="node"><title>DirectionalLight</title>
<ellipse fill="none" stroke="black" cx="950" cy="-93" rx="89.8026" ry="18.3848"/>
<text text-anchor="middle" x="950" y="-89.4" font-family="Times Roman,serif" font-size="14.00">DirectionalLight</text>
</g>
<!-- Light&#45;&gt;DirectionalLight -->
<g id="edge12" class="edge"><title>Light&#45;&gt;DirectionalLight</title>
<path fill="none" stroke="black" d="M1182.51,-157.926C1140.48,-146.191 1066.36,-125.494 1013.1,-110.62"/>
<polygon fill="black" stroke="black" points="1013.98,-107.232 1003.41,-107.914 1012.1,-113.974 1013.98,-107.232"/>
</g>
<!-- HemisphereLight -->
<g id="node15" class="node"><title>HemisphereLight</title>
<ellipse fill="none" stroke="black" cx="1153" cy="-93" rx="94.7523" ry="18.3848"/>
<text text-anchor="middle" x="1153" y="-89.4" font-family="Times Roman,serif" font-size="14.00">HemisphereLight</text>
</g>
<!-- Light&#45;&gt;HemisphereLight -->
<g id="edge14" class="edge"><title>Light&#45;&gt;HemisphereLight</title>
<path fill="none" stroke="black" d="M1200.62,-149.837C1193,-140.741 1183.48,-129.373 1174.95,-119.2"/>
<polygon fill="black" stroke="black" points="1177.49,-116.781 1168.39,-111.363 1172.12,-121.276 1177.49,-116.781"/>
</g>
<!-- PointLight -->
<g id="node17" class="node"><title>PointLight</title>
<ellipse fill="none" stroke="black" cx="1327" cy="-93" rx="61.0181" ry="18.3848"/>
<text text-anchor="middle" x="1327" y="-89.4" font-family="Times Roman,serif" font-size="14.00">PointLight</text>
</g>
<!-- Light&#45;&gt;PointLight -->
<g id="edge16" class="edge"><title>Light&#45;&gt;PointLight</title>
<path fill="none" stroke="black" d="M1237.4,-152.203C1253.31,-141.691 1274.96,-127.386 1292.99,-115.47"/>
<polygon fill="black" stroke="black" points="1295.1,-118.273 1301.51,-109.84 1291.24,-112.433 1295.1,-118.273"/>
</g>
<!-- SpotLight -->
<g id="node19" class="node"><title>SpotLight</title>
<ellipse fill="none" stroke="black" cx="1464" cy="-93" rx="58.1882" ry="18.3848"/>
<text text-anchor="middle" x="1464" y="-89.4" font-family="Times Roman,serif" font-size="14.00">SpotLight</text>
</g>
<!-- Light&#45;&gt;SpotLight -->
<g id="edge18" class="edge"><title>Light&#45;&gt;SpotLight</title>
<path fill="none" stroke="black" d="M1247.04,-157.477C1288.66,-145.108 1361.87,-123.352 1411.62,-108.567"/>
<polygon fill="black" stroke="black" points="1412.65,-111.911 1421.24,-105.707 1410.66,-105.201 1412.65,-111.911"/>
</g>
<!-- Loader -->
<g id="node20" class="node"><title>Loader</title>
<ellipse fill="none" stroke="black" cx="3476" cy="-241" rx="44.7575" ry="18.3848"/>
<text text-anchor="middle" x="3476" y="-237.4" font-family="Times Roman,serif" font-size="14.00">Loader</text>
</g>
<!-- BinaryLoader -->
<g id="node22" class="node"><title>BinaryLoader</title>
<ellipse fill="none" stroke="black" cx="3394" cy="-167" rx="77.0746" ry="18.3848"/>
<text text-anchor="middle" x="3394" y="-163.4" font-family="Times Roman,serif" font-size="14.00">BinaryLoader</text>
</g>
<!-- Loader&#45;&gt;BinaryLoader -->
<g id="edge20" class="edge"><title>Loader&#45;&gt;BinaryLoader</title>
<path fill="none" stroke="black" d="M3456.98,-223.837C3446.53,-214.401 3433.36,-202.522 3421.78,-192.066"/>
<polygon fill="black" stroke="black" points="3423.83,-189.204 3414.06,-185.102 3419.14,-194.4 3423.83,-189.204"/>
</g>
<!-- JSONLoader -->
<g id="node24" class="node"><title>JSONLoader</title>
<ellipse fill="none" stroke="black" cx="3559" cy="-167" rx="70.0036" ry="18.3848"/>
<text text-anchor="middle" x="3559" y="-163.4" font-family="Times Roman,serif" font-size="14.00">JSONLoader</text>
</g>
<!-- Loader&#45;&gt;JSONLoader -->
<g id="edge22" class="edge"><title>Loader&#45;&gt;JSONLoader</title>
<path fill="none" stroke="black" d="M3495.25,-223.837C3506.01,-214.24 3519.61,-202.116 3531.48,-191.533"/>
<polygon fill="black" stroke="black" points="3533.85,-194.11 3538.99,-184.843 3529.19,-188.885 3533.85,-194.11"/>
</g>
<!-- Material -->
<g id="node25" class="node"><title>Material</title>
<ellipse fill="none" stroke="black" cx="4674" cy="-241" rx="51.1176" ry="18.3848"/>
<text text-anchor="middle" x="4674" y="-237.4" font-family="Times Roman,serif" font-size="14.00">Material</text>
</g>
<!-- LineBasicMaterial -->
<g id="node27" class="node"><title>LineBasicMaterial</title>
<ellipse fill="none" stroke="black" cx="3744" cy="-167" rx="96.8736" ry="18.3848"/>
<text text-anchor="middle" x="3744" y="-163.4" font-family="Times Roman,serif" font-size="14.00">LineBasicMaterial</text>
</g>
<!-- Material&#45;&gt;LineBasicMaterial -->
<g id="edge24" class="edge"><title>Material&#45;&gt;LineBasicMaterial</title>
<path fill="none" stroke="black" d="M4622.71,-239.55C4492.91,-235.454 4141.02,-221.683 3850,-186 3840.77,-184.869 3831.13,-183.46 3821.58,-181.924"/>
<polygon fill="black" stroke="black" points="3822.13,-178.466 3811.69,-180.284 3820.98,-185.372 3822.13,-178.466"/>
</g>
<!-- MeshBasicMaterial -->
<g id="node29" class="node"><title>MeshBasicMaterial</title>
<ellipse fill="none" stroke="black" cx="3961" cy="-167" rx="101.823" ry="18.3848"/>
<text text-anchor="middle" x="3961" y="-163.4" font-family="Times Roman,serif" font-size="14.00">MeshBasicMaterial</text>
</g>
<!-- Material&#45;&gt;MeshBasicMaterial -->
<g id="edge26" class="edge"><title>Material&#45;&gt;MeshBasicMaterial</title>
<path fill="none" stroke="black" d="M4623.51,-237.731C4519.86,-230.724 4275.7,-212.697 4072,-186 4062.58,-184.765 4052.73,-183.314 4042.96,-181.773"/>
<polygon fill="black" stroke="black" points="4043.25,-178.276 4032.83,-180.141 4042.14,-185.187 4043.25,-178.276"/>
</g>
<!-- MeshLambertMaterial -->
<g id="node31" class="node"><title>MeshLambertMaterial</title>
<ellipse fill="none" stroke="black" cx="4199" cy="-167" rx="118.087" ry="18.3848"/>
<text text-anchor="middle" x="4199" y="-163.4" font-family="Times Roman,serif" font-size="14.00">MeshLambertMaterial</text>
</g>
<!-- Material&#45;&gt;MeshLambertMaterial -->
<g id="edge28" class="edge"><title>Material&#45;&gt;MeshLambertMaterial</title>
<path fill="none" stroke="black" d="M4626.72,-233.634C4549.24,-221.564 4393.83,-197.353 4293.21,-181.677"/>
<polygon fill="black" stroke="black" points="4293.46,-178.174 4283.04,-180.093 4292.39,-185.091 4293.46,-178.174"/>
</g>
<!-- MeshPhongMaterial -->
<g id="node33" class="node"><title>MeshPhongMaterial</title>
<ellipse fill="none" stroke="black" cx="4442" cy="-167" rx="106.98" ry="18.3848"/>
<text text-anchor="middle" x="4442" y="-163.4" font-family="Times Roman,serif" font-size="14.00">MeshPhongMaterial</text>
</g>
<!-- Material&#45;&gt;MeshPhongMaterial -->
<g id="edge30" class="edge"><title>Material&#45;&gt;MeshPhongMaterial</title>
<path fill="none" stroke="black" d="M4635.69,-228.78C4599.63,-217.279 4545.04,-199.865 4502.99,-186.454"/>
<polygon fill="black" stroke="black" points="4504,-183.102 4493.41,-183.397 4501.87,-189.771 4504,-183.102"/>
</g>
<!-- MeshDepthMaterial -->
<g id="node35" class="node"><title>MeshDepthMaterial</title>
<ellipse fill="none" stroke="black" cx="4674" cy="-167" rx="106.98" ry="18.3848"/>
<text text-anchor="middle" x="4674" y="-163.4" font-family="Times Roman,serif" font-size="14.00">MeshDepthMaterial</text>
</g>
<!-- Material&#45;&gt;MeshDepthMaterial -->
<g id="edge32" class="edge"><title>Material&#45;&gt;MeshDepthMaterial</title>
<path fill="none" stroke="black" d="M4674,-222.327C4674,-214.264 4674,-204.648 4674,-195.711"/>
<polygon fill="black" stroke="black" points="4677.5,-195.667 4674,-185.667 4670.5,-195.667 4677.5,-195.667"/>
</g>
<!-- MeshNormalMaterial -->
<g id="node37" class="node"><title>MeshNormalMaterial</title>
<ellipse fill="none" stroke="black" cx="4910" cy="-167" rx="111.222" ry="18.3848"/>
<text text-anchor="middle" x="4910" y="-163.4" font-family="Times Roman,serif" font-size="14.00">MeshNormalMaterial</text>
</g>
<!-- Material&#45;&gt;MeshNormalMaterial -->
<g id="edge34" class="edge"><title>Material&#45;&gt;MeshNormalMaterial</title>
<path fill="none" stroke="black" d="M4712.71,-228.863C4749.34,-217.375 4804.96,-199.935 4847.82,-186.497"/>
<polygon fill="black" stroke="black" points="4849.09,-189.767 4857.59,-183.435 4847,-183.087 4849.09,-189.767"/>
</g>
<!-- ParticleBasicMaterial -->
<g id="node39" class="node"><title>ParticleBasicMaterial</title>
<ellipse fill="none" stroke="black" cx="5151" cy="-167" rx="111.93" ry="18.3848"/>
<text text-anchor="middle" x="5151" y="-163.4" font-family="Times Roman,serif" font-size="14.00">ParticleBasicMaterial</text>
</g>
<!-- Material&#45;&gt;ParticleBasicMaterial -->
<g id="edge36" class="edge"><title>Material&#45;&gt;ParticleBasicMaterial</title>
<path fill="none" stroke="black" d="M4721.23,-233.742C4789.41,-223.254 4919.39,-203.229 5030,-186 5039.61,-184.503 5049.65,-182.934 5059.66,-181.367"/>
<polygon fill="black" stroke="black" points="5060.31,-184.809 5069.65,-179.803 5059.22,-177.893 5060.31,-184.809"/>
</g>
<!-- ParticleCanvasMaterial -->
<g id="node41" class="node"><title>ParticleCanvasMaterial</title>
<ellipse fill="none" stroke="black" cx="5404" cy="-167" rx="123.037" ry="18.3848"/>
<text text-anchor="middle" x="5404" y="-163.4" font-family="Times Roman,serif" font-size="14.00">ParticleCanvasMaterial</text>
</g>
<!-- Material&#45;&gt;ParticleCanvasMaterial -->
<g id="edge38" class="edge"><title>Material&#45;&gt;ParticleCanvasMaterial</title>
<path fill="none" stroke="black" d="M4724.1,-237.265C4826.95,-229.404 5069.32,-209.892 5272,-186 5283.41,-184.655 5295.35,-183.118 5307.19,-181.514"/>
<polygon fill="black" stroke="black" points="5307.67,-184.981 5317.1,-180.153 5306.72,-178.046 5307.67,-184.981"/>
</g>
<!-- ShaderMaterial -->
<g id="node43" class="node"><title>ShaderMaterial</title>
<ellipse fill="none" stroke="black" cx="5631" cy="-167" rx="85.7684" ry="18.3848"/>
<text text-anchor="middle" x="5631" y="-163.4" font-family="Times Roman,serif" font-size="14.00">ShaderMaterial</text>
</g>
<!-- Material&#45;&gt;ShaderMaterial -->
<g id="edge40" class="edge"><title>Material&#45;&gt;ShaderMaterial</title>
<path fill="none" stroke="black" d="M4725.24,-240.117C4859.1,-237.296 5230.09,-226.167 5536,-186 5544.06,-184.941 5552.47,-183.605 5560.8,-182.134"/>
<polygon fill="black" stroke="black" points="5561.69,-185.528 5570.9,-180.281 5560.43,-178.643 5561.69,-185.528"/>
</g>
<!-- Texture -->
<g id="node44" class="node"><title>Texture</title>
<ellipse fill="none" stroke="black" cx="5941" cy="-241" rx="48.7904" ry="18.3848"/>
<text text-anchor="middle" x="5941" y="-237.4" font-family="Times Roman,serif" font-size="14.00">Texture</text>
</g>
<!-- CompressedTexture -->
<g id="node46" class="node"><title>CompressedTexture</title>
<ellipse fill="none" stroke="black" cx="5842" cy="-167" rx="106.98" ry="18.3848"/>
<text text-anchor="middle" x="5842" y="-163.4" font-family="Times Roman,serif" font-size="14.00">CompressedTexture</text>
</g>
<!-- Texture&#45;&gt;CompressedTexture -->
<g id="edge42" class="edge"><title>Texture&#45;&gt;CompressedTexture</title>
<path fill="none" stroke="black" d="M5918.54,-224.208C5905.56,-214.512 5889.02,-202.146 5874.63,-191.393"/>
<polygon fill="black" stroke="black" points="5876.56,-188.464 5866.46,-185.28 5872.37,-194.071 5876.56,-188.464"/>
</g>
<!-- DataTexture -->
<g id="node48" class="node"><title>DataTexture</title>
<ellipse fill="none" stroke="black" cx="6040" cy="-167" rx="72.832" ry="18.3848"/>
<text text-anchor="middle" x="6040" y="-163.4" font-family="Times Roman,serif" font-size="14.00">DataTexture</text>
</g>
<!-- Texture&#45;&gt;DataTexture -->
<g id="edge44" class="edge"><title>Texture&#45;&gt;DataTexture</title>
<path fill="none" stroke="black" d="M5963.46,-224.208C5976.63,-214.37 5993.47,-201.781 6008,-190.919"/>
<polygon fill="black" stroke="black" points="6010.33,-193.548 6016.24,-184.757 6006.14,-187.941 6010.33,-193.548"/>
</g>
<!-- CameraHelper -->
<g id="node141" class="node"><title>CameraHelper</title>
<ellipse fill="none" stroke="black" cx="1621" cy="-93" rx="80.8184" ry="18.3848"/>
<text text-anchor="middle" x="1621" y="-89.4" font-family="Times Roman,serif" font-size="14.00">CameraHelper</text>
</g>
<!-- Line&#45;&gt;CameraHelper -->
<g id="edge134" class="edge"><title>Line&#45;&gt;CameraHelper</title>
<path fill="none" stroke="black" d="M1654.57,-149.463C1649.36,-140.693 1642.93,-129.884 1637.1,-120.079"/>
<polygon fill="black" stroke="black" points="1640.09,-118.25 1631.97,-111.444 1634.07,-121.828 1640.09,-118.25"/>
</g>
<!-- SkinnedMesh -->
<g id="node60" class="node"><title>SkinnedMesh</title>
<ellipse fill="none" stroke="black" cx="1796" cy="-93" rx="75.8684" ry="18.3848"/>
<text text-anchor="middle" x="1796" y="-89.4" font-family="Times Roman,serif" font-size="14.00">SkinnedMesh</text>
</g>
<!-- Mesh&#45;&gt;SkinnedMesh -->
<g id="edge56" class="edge"><title>Mesh&#45;&gt;SkinnedMesh</title>
<path fill="none" stroke="black" d="M1762.65,-149.087C1767.78,-140.464 1774.04,-129.938 1779.74,-120.342"/>
<polygon fill="black" stroke="black" points="1782.88,-121.905 1784.99,-111.521 1776.87,-118.328 1782.88,-121.905"/>
</g>
<!-- MorphAnimMesh -->
<g id="node62" class="node"><title>MorphAnimMesh</title>
<ellipse fill="none" stroke="black" cx="1982" cy="-93" rx="92.1303" ry="18.3848"/>
<text text-anchor="middle" x="1982" y="-89.4" font-family="Times Roman,serif" font-size="14.00">MorphAnimMesh</text>
</g>
<!-- Mesh&#45;&gt;MorphAnimMesh -->
<g id="edge58" class="edge"><title>Mesh&#45;&gt;MorphAnimMesh</title>
<path fill="none" stroke="black" d="M1780.04,-154.889C1785.93,-152.494 1792.14,-150.081 1798,-148 1837.06,-134.136 1881.57,-120.767 1917.03,-110.682"/>
<polygon fill="black" stroke="black" points="1918.11,-114.015 1926.78,-107.927 1916.21,-107.278 1918.11,-114.015"/>
</g>
<!-- MorphBlendMesh -->
<g id="node147" class="node"><title>MorphBlendMesh</title>
<ellipse fill="none" stroke="black" cx="2187" cy="-93" rx="94.9596" ry="18.3848"/>
<text text-anchor="middle" x="2187" y="-89.4" font-family="Times Roman,serif" font-size="14.00">MorphBlendMesh</text>
</g>
<!-- Mesh&#45;&gt;MorphBlendMesh -->
<g id="edge140" class="edge"><title>Mesh&#45;&gt;MorphBlendMesh</title>
<path fill="none" stroke="black" d="M1779.32,-154.325C1785.37,-151.913 1791.82,-149.636 1798,-148 1921.43,-115.341 1956.82,-131.48 2083,-112 2091.5,-110.688 2100.37,-109.219 2109.2,-107.695"/>
<polygon fill="black" stroke="black" points="2109.87,-111.131 2119.12,-105.957 2108.67,-104.236 2109.87,-111.131"/>
</g>
<!-- WebGLRenderTarget -->
<g id="node71" class="node"><title>WebGLRenderTarget</title>
<ellipse fill="none" stroke="black" cx="6268" cy="-241" rx="111.93" ry="18.3848"/>
<text text-anchor="middle" x="6268" y="-237.4" font-family="Times Roman,serif" font-size="14.00">WebGLRenderTarget</text>
</g>
<!-- WebGLRenderTargetCube -->
<g id="node73" class="node"><title>WebGLRenderTargetCube</title>
<ellipse fill="none" stroke="black" cx="6268" cy="-167" rx="137.179" ry="18.3848"/>
<text text-anchor="middle" x="6268" y="-163.4" font-family="Times Roman,serif" font-size="14.00">WebGLRenderTargetCube</text>
</g>
<!-- WebGLRenderTarget&#45;&gt;WebGLRenderTargetCube -->
<g id="edge68" class="edge"><title>WebGLRenderTarget&#45;&gt;WebGLRenderTargetCube</title>
<path fill="none" stroke="black" d="M6268,-222.327C6268,-214.264 6268,-204.648 6268,-195.711"/>
<polygon fill="black" stroke="black" points="6271.5,-195.667 6268,-185.667 6264.5,-195.667 6271.5,-195.667"/>
</g>
<!-- Curve -->
<g id="node74" class="node"><title>Curve</title>
<ellipse fill="none" stroke="black" cx="7013" cy="-241" rx="41.0122" ry="18.3848"/>
<text text-anchor="middle" x="7013" y="-237.4" font-family="Times Roman,serif" font-size="14.00">Curve</text>
</g>
<!-- LineCurve -->
<g id="node76" class="node"><title>LineCurve</title>
<ellipse fill="none" stroke="black" cx="6484" cy="-167" rx="61.0181" ry="18.3848"/>
<text text-anchor="middle" x="6484" y="-163.4" font-family="Times Roman,serif" font-size="14.00">LineCurve</text>
</g>
<!-- Curve&#45;&gt;LineCurve -->
<g id="edge70" class="edge"><title>Curve&#45;&gt;LineCurve</title>
<path fill="none" stroke="black" d="M6972.48,-238.14C6892.1,-232.03 6707.03,-215.772 6554,-186 6548.67,-184.963 6543.15,-183.736 6537.65,-182.413"/>
<polygon fill="black" stroke="black" points="6538.38,-178.988 6527.83,-179.947 6536.68,-185.777 6538.38,-178.988"/>
</g>
<!-- QuadraticBezierCurve -->
<g id="node78" class="node"><title>QuadraticBezierCurve</title>
<ellipse fill="none" stroke="black" cx="6683" cy="-167" rx="120.208" ry="18.3848"/>
<text text-anchor="middle" x="6683" y="-163.4" font-family="Times Roman,serif" font-size="14.00">QuadraticBezierCurve</text>
</g>
<!-- Curve&#45;&gt;QuadraticBezierCurve -->
<g id="edge72" class="edge"><title>Curve&#45;&gt;QuadraticBezierCurve</title>
<path fill="none" stroke="black" d="M6976.11,-232.727C6924.33,-221.116 6828.84,-199.705 6760.94,-184.477"/>
<polygon fill="black" stroke="black" points="6761.65,-181.05 6751.13,-182.277 6760.12,-187.88 6761.65,-181.05"/>
</g>
<!-- CubicBezierCurve -->
<g id="node80" class="node"><title>CubicBezierCurve</title>
<ellipse fill="none" stroke="black" cx="6920" cy="-167" rx="98.9949" ry="18.3848"/>
<text text-anchor="middle" x="6920" y="-163.4" font-family="Times Roman,serif" font-size="14.00">CubicBezierCurve</text>
</g>
<!-- Curve&#45;&gt;CubicBezierCurve -->
<g id="edge74" class="edge"><title>Curve&#45;&gt;CubicBezierCurve</title>
<path fill="none" stroke="black" d="M6992.36,-224.577C6980.22,-214.915 6964.63,-202.509 6951.03,-191.688"/>
<polygon fill="black" stroke="black" points="6952.87,-188.682 6942.87,-185.194 6948.51,-194.159 6952.87,-188.682"/>
</g>
<!-- SplineCurve -->
<g id="node82" class="node"><title>SplineCurve</title>
<ellipse fill="none" stroke="black" cx="7107" cy="-167" rx="70.2092" ry="18.3848"/>
<text text-anchor="middle" x="7107" y="-163.4" font-family="Times Roman,serif" font-size="14.00">SplineCurve</text>
</g>
<!-- Curve&#45;&gt;SplineCurve -->
<g id="edge76" class="edge"><title>Curve&#45;&gt;SplineCurve</title>
<path fill="none" stroke="black" d="M7033.4,-224.943C7046.04,-214.994 7062.5,-202.032 7076.65,-190.891"/>
<polygon fill="black" stroke="black" points="7078.98,-193.514 7084.67,-184.578 7074.65,-188.014 7078.98,-193.514"/>
</g>
<!-- EllipseCurve -->
<g id="node84" class="node"><title>EllipseCurve</title>
<ellipse fill="none" stroke="black" cx="7266" cy="-167" rx="70.9184" ry="18.3848"/>
<text text-anchor="middle" x="7266" y="-163.4" font-family="Times Roman,serif" font-size="14.00">EllipseCurve</text>
</g>
<!-- Curve&#45;&gt;EllipseCurve -->
<g id="edge78" class="edge"><title>Curve&#45;&gt;EllipseCurve</title>
<path fill="none" stroke="black" d="M7047.65,-230.866C7089.14,-218.731 7159.22,-198.231 7208.79,-183.734"/>
<polygon fill="black" stroke="black" points="7209.8,-187.086 7218.41,-180.919 7207.83,-180.367 7209.8,-187.086"/>
</g>
<!-- CurvePath -->
<g id="node88" class="node"><title>CurvePath</title>
<ellipse fill="none" stroke="black" cx="7418" cy="-167" rx="62.9325" ry="18.3848"/>
<text text-anchor="middle" x="7418" y="-163.4" font-family="Times Roman,serif" font-size="14.00">CurvePath</text>
</g>
<!-- Curve&#45;&gt;CurvePath -->
<g id="edge82" class="edge"><title>Curve&#45;&gt;CurvePath</title>
<path fill="none" stroke="black" d="M7052.44,-235.715C7115.01,-227.055 7240.71,-208.534 7346,-186 7351.29,-184.867 7356.78,-183.596 7362.26,-182.263"/>
<polygon fill="black" stroke="black" points="7363.21,-185.633 7372.06,-179.813 7361.51,-178.842 7363.21,-185.633"/>
</g>
<!-- ArcCurve -->
<g id="node86" class="node"><title>ArcCurve</title>
<ellipse fill="none" stroke="black" cx="7266" cy="-93" rx="56.0679" ry="18.3848"/>
<text text-anchor="middle" x="7266" y="-89.4" font-family="Times Roman,serif" font-size="14.00">ArcCurve</text>
</g>
<!-- EllipseCurve&#45;&gt;ArcCurve -->
<g id="edge80" class="edge"><title>EllipseCurve&#45;&gt;ArcCurve</title>
<path fill="none" stroke="black" d="M7266,-148.327C7266,-140.264 7266,-130.648 7266,-121.711"/>
<polygon fill="black" stroke="black" points="7269.5,-121.667 7266,-111.667 7262.5,-121.667 7269.5,-121.667"/>
</g>
<!-- Path -->
<g id="node92" class="node"><title>Path</title>
<ellipse fill="none" stroke="black" cx="7418" cy="-93" rx="33.9411" ry="18.3848"/>
<text text-anchor="middle" x="7418" y="-89.4" font-family="Times Roman,serif" font-size="14.00">Path</text>
</g>
<!-- CurvePath&#45;&gt;Path -->
<g id="edge86" class="edge"><title>CurvePath&#45;&gt;Path</title>
<path fill="none" stroke="black" d="M7418,-148.327C7418,-140.264 7418,-130.648 7418,-121.711"/>
<polygon fill="black" stroke="black" points="7421.5,-121.667 7418,-111.667 7414.5,-121.667 7421.5,-121.667"/>
</g>
<!-- Shape -->
<g id="node94" class="node"><title>Shape</title>
<ellipse fill="none" stroke="black" cx="7418" cy="-19" rx="41.2167" ry="18.3848"/>
<text text-anchor="middle" x="7418" y="-15.4" font-family="Times Roman,serif" font-size="14.00">Shape</text>
</g>
<!-- Path&#45;&gt;Shape -->
<g id="edge88" class="edge"><title>Path&#45;&gt;Shape</title>
<path fill="none" stroke="black" d="M7418,-74.3267C7418,-66.2639 7418,-56.6477 7418,-47.7115"/>
<polygon fill="black" stroke="black" points="7421.5,-47.6673 7418,-37.6674 7414.5,-47.6674 7421.5,-47.6673"/>
</g>
<!-- Geometry -->
<g id="node99" class="node"><title>Geometry</title>
<ellipse fill="none" stroke="black" cx="9193" cy="-241" rx="60.8112" ry="18.3848"/>
<text text-anchor="middle" x="9193" y="-237.4" font-family="Times Roman,serif" font-size="14.00">Geometry</text>
</g>
<!-- CircleGeometry -->
<g id="node101" class="node"><title>CircleGeometry</title>
<ellipse fill="none" stroke="black" cx="7586" cy="-167" rx="87.1802" ry="18.3848"/>
<text text-anchor="middle" x="7586" y="-163.4" font-family="Times Roman,serif" font-size="14.00">CircleGeometry</text>
</g>
<!-- Geometry&#45;&gt;CircleGeometry -->
<g id="edge94" class="edge"><title>Geometry&#45;&gt;CircleGeometry</title>
<path fill="none" stroke="black" d="M9131.73,-240.071C8885.82,-236.141 7969.95,-219.521 7682,-186 7673.63,-185.026 7664.9,-183.716 7656.27,-182.237"/>
<polygon fill="black" stroke="black" points="7656.66,-178.752 7646.2,-180.433 7655.42,-185.642 7656.66,-178.752"/>
</g>
<!-- CubeGeometry -->
<g id="node103" class="node"><title>CubeGeometry</title>
<ellipse fill="none" stroke="black" cx="7776" cy="-167" rx="85.0596" ry="18.3848"/>
<text text-anchor="middle" x="7776" y="-163.4" font-family="Times Roman,serif" font-size="14.00">CubeGeometry</text>
</g>
<!-- Geometry&#45;&gt;CubeGeometry -->
<g id="edge96" class="edge"><title>Geometry&#45;&gt;CubeGeometry</title>
<path fill="none" stroke="black" d="M9131.81,-239.74C8905.94,-234.89 8119.19,-216.172 7870,-186 7861.8,-185.007 7853.25,-183.686 7844.8,-182.201"/>
<polygon fill="black" stroke="black" points="7845.41,-178.755 7834.94,-180.393 7844.14,-185.64 7845.41,-178.755"/>
</g>
<!-- CylinderGeometry -->
<g id="node105" class="node"><title>CylinderGeometry</title>
<ellipse fill="none" stroke="black" cx="7980" cy="-167" rx="101.116" ry="18.3848"/>
<text text-anchor="middle" x="7980" y="-163.4" font-family="Times Roman,serif" font-size="14.00">CylinderGeometry</text>
</g>
<!-- Geometry&#45;&gt;CylinderGeometry -->
<g id="edge98" class="edge"><title>Geometry&#45;&gt;CylinderGeometry</title>
<path fill="none" stroke="black" d="M9131.81,-240.547C8964.48,-238.747 8485.42,-229.845 8090,-186 8080.25,-184.919 8070.05,-183.522 8059.97,-181.977"/>
<polygon fill="black" stroke="black" points="8060.37,-178.497 8049.94,-180.389 8059.27,-185.41 8060.37,-178.497"/>
</g>
<!-- ExtrudeGeometry -->
<g id="node107" class="node"><title>ExtrudeGeometry</title>
<ellipse fill="none" stroke="black" cx="8198" cy="-167" rx="98.9949" ry="18.3848"/>
<text text-anchor="middle" x="8198" y="-163.4" font-family="Times Roman,serif" font-size="14.00">ExtrudeGeometry</text>
</g>
<!-- Geometry&#45;&gt;ExtrudeGeometry -->
<g id="edge100" class="edge"><title>Geometry&#45;&gt;ExtrudeGeometry</title>
<path fill="none" stroke="black" d="M9132.03,-239.576C8987.91,-235.695 8615.11,-222.657 8306,-186 8296.6,-184.885 8286.78,-183.487 8277.05,-181.956"/>
<polygon fill="black" stroke="black" points="8277.4,-178.468 8266.97,-180.321 8276.28,-185.377 8277.4,-178.468"/>
</g>
<!-- ShapeGeometry -->
<g id="node109" class="node"><title>ShapeGeometry</title>
<ellipse fill="none" stroke="black" cx="8405" cy="-167" rx="90.0096" ry="18.3848"/>
<text text-anchor="middle" x="8405" y="-163.4" font-family="Times Roman,serif" font-size="14.00">ShapeGeometry</text>
</g>
<!-- Geometry&#45;&gt;ShapeGeometry -->
<g id="edge102" class="edge"><title>Geometry&#45;&gt;ShapeGeometry</title>
<path fill="none" stroke="black" d="M9132.39,-238.405C9012.13,-232.761 8734.99,-217.288 8504,-186 8495.65,-184.869 8486.94,-183.491 8478.29,-181.999"/>
<polygon fill="black" stroke="black" points="8478.66,-178.51 8468.21,-180.203 8477.44,-185.402 8478.66,-178.51"/>
</g>
<!-- LatheGeometry -->
<g id="node111" class="node"><title>LatheGeometry</title>
<ellipse fill="none" stroke="black" cx="8601" cy="-167" rx="87.889" ry="18.3848"/>
<text text-anchor="middle" x="8601" y="-163.4" font-family="Times Roman,serif" font-size="14.00">LatheGeometry</text>
</g>
<!-- Geometry&#45;&gt;LatheGeometry -->
<g id="edge104" class="edge"><title>Geometry&#45;&gt;LatheGeometry</title>
<path fill="none" stroke="black" d="M9134.12,-236.047C9041.16,-227.87 8854.84,-210.031 8698,-186 8690.04,-184.78 8681.74,-183.37 8673.49,-181.879"/>
<polygon fill="black" stroke="black" points="8673.95,-178.405 8663.48,-180.028 8672.68,-185.288 8673.95,-178.405"/>
</g>
<!-- PlaneGeometry -->
<g id="node113" class="node"><title>PlaneGeometry</title>
<ellipse fill="none" stroke="black" cx="8794" cy="-167" rx="87.1802" ry="18.3848"/>
<text text-anchor="middle" x="8794" y="-163.4" font-family="Times Roman,serif" font-size="14.00">PlaneGeometry</text>
</g>
<!-- Geometry&#45;&gt;PlaneGeometry -->
<g id="edge106" class="edge"><title>Geometry&#45;&gt;PlaneGeometry</title>
<path fill="none" stroke="black" d="M9140.13,-231.665C9079.63,-220.921 8977.59,-202.616 8890,-186 8882.69,-184.613 8875.07,-183.144 8867.46,-181.662"/>
<polygon fill="black" stroke="black" points="8867.97,-178.197 8857.49,-179.713 8866.63,-185.067 8867.97,-178.197"/>
</g>
<!-- SphereGeometry -->
<g id="node115" class="node"><title>SphereGeometry</title>
<ellipse fill="none" stroke="black" cx="8994" cy="-167" rx="94.7523" ry="18.3848"/>
<text text-anchor="middle" x="8994" y="-163.4" font-family="Times Roman,serif" font-size="14.00">SphereGeometry</text>
</g>
<!-- Geometry&#45;&gt;SphereGeometry -->
<g id="edge108" class="edge"><title>Geometry&#45;&gt;SphereGeometry</title>
<path fill="none" stroke="black" d="M9154.16,-226.556C9123.89,-215.301 9081.52,-199.543 9047.95,-187.064"/>
<polygon fill="black" stroke="black" points="9048.89,-183.676 9038.29,-183.471 9046.45,-190.237 9048.89,-183.676"/>
</g>
<!-- TorusGeometry -->
<g id="node119" class="node"><title>TorusGeometry</title>
<ellipse fill="none" stroke="black" cx="9193" cy="-167" rx="85.7684" ry="18.3848"/>
<text text-anchor="middle" x="9193" y="-163.4" font-family="Times Roman,serif" font-size="14.00">TorusGeometry</text>
</g>
<!-- Geometry&#45;&gt;TorusGeometry -->
<g id="edge112" class="edge"><title>Geometry&#45;&gt;TorusGeometry</title>
<path fill="none" stroke="black" d="M9193,-222.327C9193,-214.264 9193,-204.648 9193,-195.711"/>
<polygon fill="black" stroke="black" points="9196.5,-195.667 9193,-185.667 9189.5,-195.667 9196.5,-195.667"/>
</g>
<!-- TorusKnotGeometry -->
<g id="node121" class="node"><title>TorusKnotGeometry</title>
<ellipse fill="none" stroke="black" cx="9406" cy="-167" rx="109.101" ry="18.3848"/>
<text text-anchor="middle" x="9406" y="-163.4" font-family="Times Roman,serif" font-size="14.00">TorusKnotGeometry</text>
</g>
<!-- Geometry&#45;&gt;TorusKnotGeometry -->
<g id="edge114" class="edge"><title>Geometry&#45;&gt;TorusKnotGeometry</title>
<path fill="none" stroke="black" d="M9233.31,-226.994C9265.86,-215.686 9312.08,-199.63 9348.51,-186.973"/>
<polygon fill="black" stroke="black" points="9349.73,-190.255 9358.03,-183.667 9347.43,-183.643 9349.73,-190.255"/>
</g>
<!-- TubeGeometry -->
<g id="node123" class="node"><title>TubeGeometry</title>
<ellipse fill="none" stroke="black" cx="9616" cy="-167" rx="82.939" ry="18.3848"/>
<text text-anchor="middle" x="9616" y="-163.4" font-family="Times Roman,serif" font-size="14.00">TubeGeometry</text>
</g>
<!-- Geometry&#45;&gt;TubeGeometry -->
<g id="edge116" class="edge"><title>Geometry&#45;&gt;TubeGeometry</title>
<path fill="none" stroke="black" d="M9247.59,-232.598C9313.3,-222.33 9426.93,-204.081 9524,-186 9531.05,-184.686 9538.4,-183.262 9545.73,-181.806"/>
<polygon fill="black" stroke="black" points="9546.58,-185.206 9555.69,-179.806 9545.2,-178.343 9546.58,-185.206"/>
</g>
<!-- PolyhedronGeometry -->
<g id="node125" class="node"><title>PolyhedronGeometry</title>
<ellipse fill="none" stroke="black" cx="9832" cy="-167" rx="114.759" ry="18.3848"/>
<text text-anchor="middle" x="9832" y="-163.4" font-family="Times Roman,serif" font-size="14.00">PolyhedronGeometry</text>
</g>
<!-- Geometry&#45;&gt;PolyhedronGeometry -->
<g id="edge118" class="edge"><title>Geometry&#45;&gt;PolyhedronGeometry</title>
<path fill="none" stroke="black" d="M9251.41,-235.638C9347.02,-226.665 9542.82,-207.464 9708,-186 9718.5,-184.636 9729.48,-183.104 9740.39,-181.518"/>
<polygon fill="black" stroke="black" points="9740.98,-184.969 9750.37,-180.05 9739.96,-178.043 9740.98,-184.969"/>
</g>
<!-- IcosahedronGeometry -->
<g id="node127" class="node"><title>IcosahedronGeometry</title>
<ellipse fill="none" stroke="black" cx="10084" cy="-167" rx="119.001" ry="18.3848"/>
<text text-anchor="middle" x="10084" y="-163.4" font-family="Times Roman,serif" font-size="14.00">IcosahedronGeometry</text>
</g>
<!-- Geometry&#45;&gt;IcosahedronGeometry -->
<g id="edge120" class="edge"><title>Geometry&#45;&gt;IcosahedronGeometry</title>
<path fill="none" stroke="black" d="M9253.48,-238.193C9382.71,-231.855 9695.28,-214.706 9956,-186 9967.23,-184.764 9978.98,-183.281 9990.62,-181.695"/>
<polygon fill="black" stroke="black" points="9991.38,-185.123 10000.8,-180.278 9990.42,-178.189 9991.38,-185.123"/>
</g>
<!-- OctahedronGeometry -->
<g id="node129" class="node"><title>OctahedronGeometry</title>
<ellipse fill="none" stroke="black" cx="10339" cy="-167" rx="118.087" ry="18.3848"/>
<text text-anchor="middle" x="10339" y="-163.4" font-family="Times Roman,serif" font-size="14.00">OctahedronGeometry</text>
</g>
<!-- Geometry&#45;&gt;OctahedronGeometry -->
<g id="edge122" class="edge"><title>Geometry&#45;&gt;OctahedronGeometry</title>
<path fill="none" stroke="black" d="M9254.03,-239.718C9412.47,-235.955 9849.78,-222.787 10212,-186 10223.3,-184.85 10235.2,-183.403 10246.9,-181.824"/>
<polygon fill="black" stroke="black" points="10247.7,-185.242 10257.2,-180.406 10246.8,-178.308 10247.7,-185.242"/>
</g>
<!-- TetrahedronGeometry -->
<g id="node131" class="node"><title>TetrahedronGeometry</title>
<ellipse fill="none" stroke="black" cx="10595" cy="-167" rx="120.208" ry="18.3848"/>
<text text-anchor="middle" x="10595" y="-163.4" font-family="Times Roman,serif" font-size="14.00">TetrahedronGeometry</text>
</g>
<!-- Geometry&#45;&gt;TetrahedronGeometry -->
<g id="edge124" class="edge"><title>Geometry&#45;&gt;TetrahedronGeometry</title>
<path fill="none" stroke="black" d="M9254.1,-240.591C9437.84,-238.881 10001.3,-230.139 10466,-186 10477.7,-184.888 10490,-183.445 10502.1,-181.85"/>
<polygon fill="black" stroke="black" points="10502.8,-185.289 10512.2,-180.48 10501.8,-178.352 10502.8,-185.289"/>
</g>
<!-- ParametricGeometry -->
<g id="node133" class="node"><title>ParametricGeometry</title>
<ellipse fill="none" stroke="black" cx="10846" cy="-167" rx="113.137" ry="18.3848"/>
<text text-anchor="middle" x="10846" y="-163.4" font-family="Times Roman,serif" font-size="14.00">ParametricGeometry</text>
</g>
<!-- Geometry&#45;&gt;ParametricGeometry -->
<g id="edge126" class="edge"><title>Geometry&#45;&gt;ParametricGeometry</title>
<path fill="none" stroke="black" d="M9254.2,-239.772C9501.97,-234.652 10431.3,-213.953 10724,-186 10735.1,-184.936 10746.8,-183.516 10758.3,-181.929"/>
<polygon fill="black" stroke="black" points="10759,-185.37 10768.4,-180.497 10758,-178.44 10759,-185.37"/>
</g>
<!-- ConvexGeometry -->
<g id="node135" class="node"><title>ConvexGeometry</title>
<ellipse fill="none" stroke="black" cx="11074" cy="-167" rx="96.8736" ry="18.3848"/>
<text text-anchor="middle" x="11074" y="-163.4" font-family="Times Roman,serif" font-size="14.00">ConvexGeometry</text>
</g>
<!-- Geometry&#45;&gt;ConvexGeometry -->
<g id="edge128" class="edge"><title>Geometry&#45;&gt;ConvexGeometry</title>
<path fill="none" stroke="black" d="M9254.08,-240.309C9525.61,-237.052 10625,-221.865 10968,-186 10977.5,-185.012 10987.3,-183.667 10997.1,-182.145"/>
<polygon fill="black" stroke="black" points="10997.9,-185.561 11007.2,-180.504 10996.8,-178.652 10997.9,-185.561"/>
</g>
<!-- TextGeometry -->
<g id="node117" class="node"><title>TextGeometry</title>
<ellipse fill="none" stroke="black" cx="8198" cy="-93" rx="80.8184" ry="18.3848"/>
<text text-anchor="middle" x="8198" y="-89.4" font-family="Times Roman,serif" font-size="14.00">TextGeometry</text>
</g>
<!-- ExtrudeGeometry&#45;&gt;TextGeometry -->
<g id="edge110" class="edge"><title>ExtrudeGeometry&#45;&gt;TextGeometry</title>
<path fill="none" stroke="black" d="M8198,-148.327C8198,-140.264 8198,-130.648 8198,-121.711"/>
<polygon fill="black" stroke="black" points="8201.5,-121.667 8198,-111.667 8194.5,-121.667 8201.5,-121.667"/>
</g>
</g>
</svg>
